# xmcd
#
# Track frame offsets:
#	150
#	16274
#	33536
#	60090
#	73893
#	88606
#	103594
#	128356
#	140870
#	151809
#
# Disc length: 2217 seconds
#
# Revision: 1
# Processed by: cddbd v1.5.2PL0 Copyright (c) Steve Scherf et al.
# Submitted via: audiograbber 1.83.01
#
DISCID=7b08a70a
DTITLE=Blue Bark - In The Doghouse
DYEAR=2010
DGENRE=BluesRock
TTITLE0=42 Miles
TTITLE1=Beautiful Sunset
TTITLE2=Black Coffee
TTITLE3=Better In The Dark
TTITLE4=Cocaine Katy
TTITLE5=Let's Work Together
TTITLE6=So Quickly
TTITLE7=Young Boy
TTITLE8=Spinning Wheel Blues
TTITLE9=Mud Life
EXTD=
EXTT0=
EXTT1=
EXTT2=
EXTT3=
EXTT4=
EXTT5=
EXTT6=
EXTT7=
EXTT8=
EXTT9=
PLAYORDER=
